<svg width="32" height="32" viewBox="0 0 32 32" fill="none" xmlns="http://www.w3.org/2000/svg">
<g clip-path="url(#clip0_757_976)">
<path d="M2.41529 9.04527L9.04445 2.41611L7.93947 1.31113C6.11183 -0.516511 3.13795 -0.516511 1.31055 1.31137C0.42505 2.19663 -0.0625 3.37363 -0.0625 4.62583C-0.0625 5.87779 0.42505 7.05504 1.31055 7.94029L2.41529 9.04527Z" fill="#2405F2"/>
<path d="M3.74121 10.3704L6.39283 7.71875L10.1924 11.5183L7.54078 14.1699L3.74121 10.3704Z" fill="#2405F2"/>
<path d="M7.71875 6.39283L10.3704 3.74121L14.1699 7.54053L11.5183 10.1922L7.71875 6.39283Z" fill="#2405F2"/>
<path d="M22.8247 28.1272C22.8247 28.1275 22.8247 28.1275 22.8245 28.1275L22.3877 28.5645L30.6526 31.8704C30.7654 31.9155 30.8833 31.9375 31.0005 31.9375C31.2446 31.9375 31.4844 31.8421 31.6636 31.6629C31.9287 31.3977 32.0103 31 31.8711 30.6516L28.5652 22.3867L22.8247 28.1272Z" fill="#2405F2"/>
<path d="M17.7051 24.3342L20.3567 21.6826L23.4866 24.8127L20.835 27.4644L17.7051 24.3342Z" fill="#2405F2"/>
<path d="M21.6826 20.3569L24.3342 17.7051L27.4644 20.8352L24.8127 23.4868L21.6826 20.3569Z" fill="#2405F2"/>
<path d="M8.05129 25.1497C7.68507 25.5157 7.68507 26.1094 8.05129 26.4754L10.482 28.9061L7.72511 31.6629C7.35915 32.0291 6.76539 32.0291 6.39943 31.6629L0.212159 25.4756C-0.154053 25.1097 -0.154053 24.5159 0.212159 24.1499L24.1499 0.212159C24.5159 -0.154053 25.1097 -0.154053 25.4756 0.212159L31.6629 6.39918C31.846 6.58229 31.9376 6.82228 31.9376 7.06227C31.9376 7.30202 31.846 7.54201 31.6629 7.72511L28.9061 10.482L25.5916 7.16725C25.2254 6.80104 24.6319 6.80104 24.2657 7.16725C23.8997 7.53346 23.8997 8.12697 24.2657 8.49318L27.5801 11.8076L25.4864 13.9016L23.0557 11.4707C22.6897 11.1048 22.096 11.1048 21.7298 11.4707C21.3638 11.8369 21.3638 12.4304 21.7298 12.7967L24.1604 15.2273L22.0667 17.3213L18.7522 14.0066C18.386 13.6407 17.7925 13.6407 17.4263 14.0066C17.0603 14.3728 17.0603 14.9663 17.4263 15.3325L20.7408 18.647L18.647 20.741L16.2163 18.3103C15.8501 17.9441 15.2566 17.9441 14.8904 18.3103C14.5244 18.6763 14.5244 19.2698 14.8904 19.636L17.3211 22.0667L15.2273 24.1607L11.9129 20.846C11.5467 20.48 10.9531 20.48 10.5869 20.846C10.221 21.2122 10.221 21.8057 10.5869 22.1719L13.9014 25.4864L11.8076 27.5804L9.37697 25.1497C9.011 24.7835 8.41725 24.7835 8.05129 25.1497V25.1497Z" fill="#2405F2"/>
</g>
<defs>
<clipPath id="clip0_757_976">
<rect width="32" height="32" fill="white"/>
</clipPath>
</defs>
</svg>
