<svg width="32" height="32" viewBox="0 0 32 32" fill="none" xmlns="http://www.w3.org/2000/svg">
<g clip-path="url(#clip0_757_919)">
<path d="M26.792 9.092L28.9427 6.94267C29.464 6.42267 29.464 5.57867 28.9427 5.05733C28.4213 4.536 27.5787 4.536 27.0573 5.05733L24.9067 7.20667C22.808 5.472 20.1933 4.33867 17.3333 4.068V2.66667H20C20.7373 2.66667 21.3333 2.06933 21.3333 1.33333C21.3333 0.597333 20.7373 0 20 0H12C11.2627 0 10.6667 0.597333 10.6667 1.33333C10.6667 2.06933 11.2627 2.66667 12 2.66667H14.6667V4.068C7.57067 4.74133 2 10.7307 2 18C2 25.72 8.28 32 16 32C23.72 32 30 25.72 30 18C30 14.6187 28.7947 11.5147 26.792 9.092ZM17.3333 18C17.3333 18.7373 16.736 19.3333 16 19.3333C15.264 19.3333 14.6667 18.7373 14.6667 18V10.6667C14.6667 9.92933 15.264 9.33333 16 9.33333C16.736 9.33333 17.3333 9.92933 17.3333 10.6667V18Z" fill="#2405F2"/>
</g>
<defs>
<clipPath id="clip0_757_919">
<rect width="32" height="32" fill="white"/>
</clipPath>
</defs>
</svg>
