<svg width="32" height="32" viewBox="0 0 32 32" fill="none" xmlns="http://www.w3.org/2000/svg">
<path d="M24.3434 5.46387C24.3434 4.71312 24.0504 4.00637 23.5194 3.47537L20.868 0.824C20.3444 0.300313 19.6011 0 18.8613 0H18.7002V5.625H24.3434L24.3434 5.46387Z" fill="#2405F2"/>
<path d="M17.1211 19.3461C17.3005 18.8013 17.6136 18.2941 18.0219 17.8831L24.3696 11.561V7.5H17.7821C17.2639 7.5 16.875 7.08069 16.875 6.5625V0H2.8125C1.26162 0 0 1.26163 0 2.8125V29.1875C0 30.7384 1.26162 32 2.8125 32H21.5321C23.0829 32 24.3696 30.7384 24.3696 29.1875V22.1906L23.3393 23.1958C22.9219 23.6096 22.433 23.9108 21.8818 24.0949L18.9009 25.0901L18.4467 25.1148C17.696 25.1148 16.9856 24.7495 16.5443 24.1379C16.1067 23.5291 15.9877 22.7399 16.2257 22.0268L17.1211 19.3461ZM4.6875 16.875H14.0321C14.5502 16.875 14.9696 17.2943 14.9696 17.8125C14.9696 18.3307 14.5502 18.75 14.0321 18.75H4.6875C4.16931 18.75 3.75 18.3307 3.75 17.8125C3.75 17.2943 4.16931 16.875 4.6875 16.875ZM3.75 14.0625C3.75 13.5443 4.16931 13.125 4.6875 13.125H14.0321C14.5502 13.125 14.9696 13.5443 14.9696 14.0625C14.9696 14.5807 14.5502 15 14.0321 15H4.6875C4.16931 15 3.75 14.5807 3.75 14.0625ZM3.75 21.5625C3.75 21.0443 4.16931 20.625 4.6875 20.625H14.0321C14.5502 20.625 14.9696 21.0443 14.9696 21.5625C14.9696 22.0807 14.5502 22.5 14.0321 22.5H4.6875C4.16931 22.5 3.75 22.0807 3.75 21.5625ZM17.7821 26.25C18.3002 26.25 18.7196 26.6693 18.7196 27.1875C18.7196 27.7057 18.3003 28.125 17.7821 28.125H12.1571C11.6389 28.125 11.2196 27.7057 11.2196 27.1875C11.2196 26.6693 11.6389 26.25 12.1571 26.25H17.7821ZM4.6875 11.25C4.16931 11.25 3.75 10.8307 3.75 10.3125C3.75 9.79431 4.16931 9.375 4.6875 9.375H17.7821C18.3002 9.375 18.7196 9.79431 18.7196 10.3125C18.7196 10.8307 18.3002 11.25 17.7821 11.25H4.6875Z" fill="#2405F2"/>
<path d="M18.8181 20.1768L18.0024 22.6237C17.8802 22.9903 18.229 23.3389 18.5956 23.2165L21.0411 22.3998L18.8181 20.1768Z" fill="#2405F2"/>
<path d="M26.102 12.458L19.9277 18.6323L22.5905 21.2951C23.986 19.8994 26.7014 17.1837 28.7645 15.1205L26.102 12.458Z" fill="#2405F2"/>
<path d="M31.4506 9.76703C31.121 9.43559 30.6358 9.24609 30.1212 9.24609C29.6067 9.24609 29.1215 9.43559 28.79 9.76797L27.4277 11.1303L30.0901 13.7927C30.8359 13.0468 31.3514 12.5313 31.4525 12.4302C32.1849 11.6968 32.1848 10.5022 31.4506 9.76703Z" fill="#2405F2"/>
</svg>
