<svg width="32" height="32" viewBox="0 0 32 32" fill="none" xmlns="http://www.w3.org/2000/svg">
<g clip-path="url(#clip0_3622_925)">
<path d="M16 12.8749C19.003 12.8749 21.4374 10.4405 21.4374 7.43745C21.4374 4.43443 19.003 2 16 2C12.9969 2 10.5625 4.43443 10.5625 7.43745C10.5625 10.4405 12.9969 12.8749 16 12.8749Z" fill="#2405F2"/>
<path d="M27 12.8749C28.8984 12.8749 30.4374 11.3359 30.4374 9.43747C30.4374 7.53901 28.8984 6 27 6C25.1015 6 23.5625 7.53901 23.5625 9.43747C23.5625 11.3359 25.1015 12.8749 27 12.8749Z" fill="#2405F2"/>
<path d="M4.99997 12.8749C6.89843 12.8749 8.43744 11.3359 8.43744 9.43747C8.43744 7.53901 6.89843 6 4.99997 6C3.10151 6 1.5625 7.53901 1.5625 9.43747C1.5625 11.3359 3.10151 12.8749 4.99997 12.8749Z" fill="#2405F2"/>
<path d="M8.3868 15.9615C7.03369 14.8528 5.80826 14.9996 4.24371 14.9996C1.90373 14.9996 0 16.8921 0 19.2177V26.0432C0 27.0532 0.824368 27.8745 1.83811 27.8745C6.21469 27.8745 5.68745 27.9537 5.68745 27.6857C5.68745 22.8491 5.11458 19.3022 8.3868 15.9615Z" fill="#2405F2"/>
<path d="M17.4882 15.0249C14.7555 14.797 12.3802 15.0275 10.3314 16.7187C6.90288 19.4649 7.56268 23.1625 7.56268 27.6861C7.56268 28.8829 8.53642 29.8748 9.75141 29.8748C22.9439 29.8748 23.469 30.3003 24.2513 28.5679C24.5078 27.9821 24.4375 28.1682 24.4375 22.5636C24.4375 18.112 20.583 15.0249 17.4882 15.0249Z" fill="#2405F2"/>
<path d="M27.7564 15.0004C26.1833 15.0004 24.9646 14.8552 23.6133 15.9623C26.8611 19.2783 26.3126 22.5832 26.3126 27.6865C26.3126 27.9562 25.8749 27.8753 30.0963 27.8753C31.1463 27.8753 32.0001 27.0247 32.0001 25.9791V19.2185C32.0001 16.8929 30.0963 15.0004 27.7564 15.0004Z" fill="#2405F2"/>
</g>
<defs>
<clipPath id="clip0_3622_925">
<rect width="32" height="32" fill="white"/>
</clipPath>
</defs>
</svg>
