<svg width="32" height="32" viewBox="0 0 32 32" fill="none" xmlns="http://www.w3.org/2000/svg">
<g clip-path="url(#clip0_757_984)">
<path d="M31.9995 21.6558C31.9995 17.6848 29.7214 14.1409 26.3096 12.417C26.2036 20.0308 20.0308 26.2036 12.417 26.3096C14.1409 29.7214 17.6848 31.9995 21.6558 31.9995C23.5176 31.9995 25.3281 31.5037 26.9189 30.5615L31.9543 31.9543L30.5615 26.9189C31.5037 25.3281 31.9995 23.5176 31.9995 21.6558V21.6558Z" fill="#2405F2"/>
<path d="M24.4375 12.2188C24.4375 5.4812 18.9563 0 12.2188 0C5.4812 0 0 5.4812 0 12.2188C0 14.4146 0.584473 16.5525 1.69434 18.4294L0.0449219 24.3923L6.00806 22.7432C7.88501 23.853 10.0229 24.4375 12.2188 24.4375C18.9563 24.4375 24.4375 18.9563 24.4375 12.2188ZM10.3438 9.375H8.46875C8.46875 7.30713 10.1509 5.625 12.2188 5.625C14.2866 5.625 15.9688 7.30713 15.9688 9.375C15.9688 10.4246 15.5244 11.4333 14.7493 12.1423L13.1562 13.6003V15.0625H11.2812V12.7747L13.4834 10.759C13.877 10.3989 14.0938 9.90747 14.0938 9.375C14.0938 8.34106 13.2527 7.5 12.2188 7.5C11.1848 7.5 10.3438 8.34106 10.3438 9.375ZM11.2812 16.9375H13.1562V18.8125H11.2812V16.9375Z" fill="#2405F2"/>
</g>
<defs>
<clipPath id="clip0_757_984">
<rect width="32" height="32" fill="white"/>
</clipPath>
</defs>
</svg>
