<svg width="640" height="410" viewBox="0 0 640 410" fill="none" xmlns="http://www.w3.org/2000/svg">
<path fill-rule="evenodd" clip-rule="evenodd" d="M200.083 262.437H13.3389C7.19983 262.437 2.22315 266.471 2.22315 271.446V383.151C2.22315 388.126 7.19983 392.159 13.3389 392.159H200.083C206.222 392.159 211.199 388.126 211.199 383.151V271.446C211.199 266.471 206.222 262.437 200.083 262.437ZM13.3389 260.636C5.97202 260.636 0 265.476 0 271.446V383.151C0 389.121 5.97202 393.961 13.3389 393.961H200.083C207.45 393.961 213.422 389.121 213.422 383.151V271.446C213.422 265.476 207.45 260.636 200.083 260.636H13.3389Z" fill="url(#paint0_linear_3654_908)"/>
<path d="M17.2568 282.195C17.2568 280.21 18.9953 278.602 21.1399 278.602H165.244C167.389 278.602 169.127 280.21 169.127 282.195V282.195C169.127 284.179 167.389 285.788 165.244 285.788H21.1399C18.9953 285.788 17.2568 284.179 17.2568 282.195V282.195Z" fill="url(#paint1_linear_3654_908)"/>
<path d="M17.2568 300.158C17.2568 298.174 18.9953 296.565 21.1399 296.565H67.7365C69.8811 296.565 71.6196 298.174 71.6196 300.158V300.158C71.6196 302.143 69.8811 303.751 67.7365 303.751H21.1399C18.9953 303.751 17.2568 302.143 17.2568 300.158V300.158Z" fill="url(#paint2_linear_3654_908)"/>
<path d="M78.5244 300.158C78.5244 298.174 80.2629 296.565 82.4075 296.565H100.528C102.673 296.565 104.411 298.174 104.411 300.158V300.158C104.411 302.143 102.673 303.751 100.528 303.751H82.4075C80.2629 303.751 78.5244 302.143 78.5244 300.158V300.158Z" fill="url(#paint3_linear_3654_908)"/>
<path d="M17.2568 372.019C17.2568 370.034 18.9953 368.426 21.1399 368.426H67.7365C69.8811 368.426 71.6196 370.034 71.6196 372.019V372.019C71.6196 374.003 69.8811 375.612 67.7365 375.612H21.1399C18.9953 375.612 17.2568 374.003 17.2568 372.019V372.019Z" fill="url(#paint4_linear_3654_908)"/>
<path d="M78.5244 372.019C78.5244 370.034 80.2629 368.426 82.4075 368.426H100.528C102.673 368.426 104.411 370.034 104.411 372.019V372.019C104.411 374.003 102.673 375.612 100.528 375.612H82.4075C80.2629 375.612 78.5244 374.003 78.5244 372.019V372.019Z" fill="url(#paint5_linear_3654_908)"/>
<path d="M48.3203 336.089C48.3203 334.105 50.0588 332.496 52.2034 332.496H65.1469C67.2914 332.496 69.0299 334.105 69.0299 336.089V336.089C69.0299 338.074 67.2914 339.682 65.1469 339.682H52.2034C50.0588 339.682 48.3203 338.074 48.3203 336.089V336.089Z" fill="url(#paint6_linear_3654_908)"/>
<path d="M76.7979 336.089C76.7979 334.105 78.5364 332.496 80.6809 332.496H135.907C138.051 332.496 139.79 334.105 139.79 336.089V336.089C139.79 338.074 138.051 339.682 135.907 339.682H80.6809C78.5364 339.682 76.7979 338.074 76.7979 336.089V336.089Z" fill="url(#paint7_linear_3654_908)"/>
<path d="M17.2568 336.089C17.2568 334.105 18.9953 332.496 21.1399 332.496H39.2608C41.4054 332.496 43.1439 334.105 43.1439 336.089V336.089C43.1439 338.074 41.4054 339.682 39.2608 339.682H21.1399C18.9953 339.682 17.2568 338.074 17.2568 336.089V336.089Z" fill="url(#paint8_linear_3654_908)"/>
<path d="M17.2568 318.124C17.2568 316.14 18.9953 314.531 21.1399 314.531H84.1317C86.2762 314.531 88.0147 316.14 88.0147 318.124V318.124C88.0147 320.109 86.2762 321.717 84.1317 321.717H21.1399C18.9953 321.717 17.2568 320.109 17.2568 318.124V318.124Z" fill="url(#paint9_linear_3654_908)"/>
<path d="M94.0547 318.124C94.0547 316.14 95.7932 314.531 97.9377 314.531H127.276C129.421 314.531 131.159 316.14 131.159 318.124V318.124C131.159 320.109 129.421 321.717 127.276 321.717H97.9377C95.7932 321.717 94.0547 320.109 94.0547 318.124V318.124Z" fill="url(#paint10_linear_3654_908)"/>
<path d="M17.2568 354.055C17.2568 352.071 18.9953 350.462 21.1399 350.462H84.1317C86.2762 350.462 88.0147 352.071 88.0147 354.055V354.055C88.0147 356.039 86.2762 357.648 84.1317 357.648H21.1399C18.9953 357.648 17.2568 356.039 17.2568 354.055V354.055Z" fill="url(#paint11_linear_3654_908)"/>
<path d="M88.8359 17.0669C88.8359 7.6411 97.0938 0 107.28 0H588.779C598.966 0 607.223 7.64111 607.223 17.0669V344.931C607.223 354.357 598.966 361.998 588.779 361.998H107.28C97.0938 361.998 88.8359 354.357 88.8359 344.931V17.0669Z" fill="url(#paint12_linear_3654_908)"/>
<path fill-rule="evenodd" clip-rule="evenodd" d="M588.511 1.79652H107.013C97.8985 1.79652 90.5099 8.6333 90.5099 17.0669V344.931C90.5099 353.365 97.8985 360.202 107.013 360.202H588.511C597.626 360.202 605.014 353.365 605.014 344.931V17.0669C605.014 8.6333 597.626 1.79652 588.511 1.79652ZM107.013 0C96.8262 0 88.5684 7.64111 88.5684 17.0669V344.931C88.5684 354.357 96.8262 361.998 107.013 361.998H588.511C598.698 361.998 606.956 354.357 606.956 344.931V17.0669C606.956 7.64111 598.698 0 588.511 0H107.013Z" fill="url(#paint13_linear_3654_908)"/>
<path d="M100.216 33.6848C100.216 23.5149 109.126 15.2705 120.116 15.2705H567.638C578.629 15.2705 587.539 23.5149 587.539 33.6848V33.6848C587.539 43.8547 578.629 52.0991 567.638 52.0991H120.116C109.126 52.0991 100.216 43.8547 100.216 33.6848V33.6848Z" fill="url(#paint14_linear_3654_908)"/>
<path fill-rule="evenodd" clip-rule="evenodd" d="M573.843 72.9755H387.099C380.96 72.9755 375.983 77.0087 375.983 81.984V193.689C375.983 198.664 380.96 202.697 387.099 202.697H573.843C579.982 202.697 584.959 198.664 584.959 193.689V81.984C584.959 77.0087 579.982 72.9755 573.843 72.9755ZM387.099 71.1738C379.732 71.1738 373.76 76.0137 373.76 81.984V193.689C373.76 199.659 379.732 204.499 387.099 204.499H573.843C581.21 204.499 587.182 199.659 587.182 193.689V81.984C587.182 76.0137 581.21 71.1738 573.843 71.1738H387.099Z" fill="url(#paint15_linear_3654_908)"/>
<path d="M391.017 92.7327C391.017 90.7483 392.755 89.1396 394.9 89.1396H539.004C541.149 89.1396 542.887 90.7483 542.887 92.7327V92.7327C542.887 94.7171 541.149 96.3257 539.004 96.3257H394.9C392.755 96.3257 391.017 94.7171 391.017 92.7327V92.7327Z" fill="url(#paint16_linear_3654_908)"/>
<path d="M391.017 110.696C391.017 108.711 392.755 107.103 394.9 107.103H441.496C443.641 107.103 445.379 108.711 445.379 110.696V110.696C445.379 112.68 443.641 114.289 441.496 114.289H394.9C392.755 114.289 391.017 112.68 391.017 110.696V110.696Z" fill="url(#paint17_linear_3654_908)"/>
<path d="M452.278 110.696C452.278 108.711 454.017 107.103 456.161 107.103H474.282C476.427 107.103 478.165 108.711 478.165 110.696V110.696C478.165 112.68 476.427 114.289 474.282 114.289H456.161C454.017 114.289 452.278 112.68 452.278 110.696V110.696Z" fill="url(#paint18_linear_3654_908)"/>
<path d="M391.017 182.557C391.017 180.573 392.755 178.964 394.9 178.964H441.496C443.641 178.964 445.379 180.573 445.379 182.557V182.557C445.379 184.541 443.641 186.15 441.496 186.15H394.9C392.755 186.15 391.017 184.541 391.017 182.557V182.557Z" fill="url(#paint19_linear_3654_908)"/>
<path d="M452.278 182.557C452.278 180.573 454.017 178.964 456.161 178.964H474.282C476.427 178.964 478.165 180.573 478.165 182.557V182.557C478.165 184.541 476.427 186.15 474.282 186.15H456.161C454.017 186.15 452.278 184.541 452.278 182.557V182.557Z" fill="url(#paint20_linear_3654_908)"/>
<path d="M422.082 146.627C422.082 144.643 423.821 143.034 425.965 143.034H438.909C441.053 143.034 442.792 144.643 442.792 146.627V146.627C442.792 148.612 441.053 150.22 438.909 150.22H425.965C423.821 150.22 422.082 148.612 422.082 146.627V146.627Z" fill="url(#paint21_linear_3654_908)"/>
<path d="M450.559 146.627C450.559 144.643 452.297 143.034 454.442 143.034H509.667C511.812 143.034 513.55 144.643 513.55 146.627V146.627C513.55 148.612 511.812 150.22 509.667 150.22H454.442C452.297 150.22 450.559 148.612 450.559 146.627V146.627Z" fill="url(#paint22_linear_3654_908)"/>
<path d="M391.017 146.627C391.017 144.643 392.755 143.034 394.9 143.034H413.021C415.165 143.034 416.904 144.643 416.904 146.627V146.627C416.904 148.612 415.165 150.22 413.021 150.22H394.9C392.755 150.22 391.017 148.612 391.017 146.627V146.627Z" fill="url(#paint23_linear_3654_908)"/>
<path d="M391.017 128.661C391.017 126.677 392.755 125.068 394.9 125.068H457.891C460.036 125.068 461.774 126.677 461.774 128.661V128.661C461.774 130.646 460.036 132.254 457.891 132.254H394.9C392.755 132.254 391.017 130.646 391.017 128.661V128.661Z" fill="url(#paint24_linear_3654_908)"/>
<path d="M467.815 128.661C467.815 126.677 469.554 125.068 471.698 125.068H501.037C503.182 125.068 504.92 126.677 504.92 128.661V128.661C504.92 130.646 503.182 132.254 501.037 132.254H471.698C469.554 132.254 467.815 130.646 467.815 128.661V128.661Z" fill="url(#paint25_linear_3654_908)"/>
<path d="M391.017 164.593C391.017 162.609 392.755 161 394.9 161H457.891C460.036 161 461.774 162.609 461.774 164.593V164.593C461.774 166.577 460.036 168.186 457.891 168.186H394.9C392.755 168.186 391.017 166.577 391.017 164.593V164.593Z" fill="url(#paint26_linear_3654_908)"/>
<path d="M135.791 33.8869C135.791 37.2886 132.81 40.0463 129.133 40.0463C125.456 40.0463 122.475 37.2886 122.475 33.8869C122.475 30.4852 125.456 27.7275 129.133 27.7275C132.81 27.7275 135.791 30.4852 135.791 33.8869Z" fill="#FED280"/>
<path d="M159.098 33.8869C159.098 37.2886 156.117 40.0463 152.44 40.0463C148.762 40.0463 145.781 37.2886 145.781 33.8869C145.781 30.4852 148.762 27.7275 152.44 27.7275C156.117 27.7275 159.098 30.4852 159.098 33.8869Z" fill="#8CFEE3" fill-opacity="0.9"/>
<path d="M182.402 33.8869C182.402 37.2886 179.421 40.0463 175.743 40.0463C172.066 40.0463 169.085 37.2886 169.085 33.8869C169.085 30.4852 172.066 27.7275 175.743 27.7275C179.421 27.7275 182.402 30.4852 182.402 33.8869Z" fill="#FF8DA9" fill-opacity="0.9"/>
<rect x="111.588" y="71.1738" width="245.923" height="133.325" rx="13" fill="url(#paint27_linear_3654_908)"/>
<rect x="111.588" y="219.535" width="475.595" height="118.289" rx="13" fill="url(#paint28_linear_3654_908)"/>
<rect x="128.92" y="81.1982" width="68.2517" height="54.132" rx="6" fill="url(#paint29_linear_3654_908)"/>
<rect x="205.837" y="81.1982" width="135.42" height="54.132" rx="6" fill="url(#paint30_linear_3654_908)"/>
<rect x="205.837" y="141.345" width="62.8349" height="54.132" rx="6" fill="url(#paint31_linear_3654_908)"/>
<rect x="274.092" y="141.345" width="62.8349" height="54.132" rx="6" fill="url(#paint32_linear_3654_908)"/>
<rect x="128.92" y="141.345" width="68.2517" height="8.01956" rx="4.00978" fill="#303262" fill-opacity="0.5"/>
<rect x="128.92" y="172.421" width="68.2517" height="8.01956" rx="4.00978" fill="#303262" fill-opacity="0.5"/>
<rect x="128.92" y="156.382" width="68.2517" height="8.01956" rx="4.00978" fill="#303262" fill-opacity="0.5"/>
<rect x="128.92" y="187.457" width="68.2517" height="8.01956" rx="4.00978" fill="#303262" fill-opacity="0.5"/>
<path fill-rule="evenodd" clip-rule="evenodd" d="M577.165 371.232C565.602 371.232 556.228 362.558 556.228 351.859C556.228 341.159 565.602 332.486 577.165 332.486C588.728 332.486 598.102 341.159 598.102 351.859C598.102 362.558 588.728 371.232 577.165 371.232ZM640 360.622V343.095L625.071 339.585C623.976 335.918 622.403 332.434 620.417 329.196L628.293 316.943L614.899 304.549L601.657 311.837C598.157 309.999 594.393 308.544 590.429 307.53L586.636 293.717H567.694L563.901 307.53C559.937 308.544 556.173 309.999 552.673 311.837L539.431 304.549L526.037 316.943L533.913 329.196C531.927 332.434 530.354 335.918 529.259 339.585L514.33 343.095V360.622L529.259 364.132C530.354 367.799 531.927 371.283 533.913 374.522L526.037 386.774L539.431 399.168L552.673 391.88C556.173 393.718 559.937 395.174 563.901 396.187L567.694 410H586.636L590.429 396.187C594.393 395.174 598.157 393.718 601.657 391.88L614.899 399.168L628.293 386.774L620.417 374.522C622.403 371.283 623.976 367.799 625.071 364.132L640 360.622Z" fill="#FCD980"/>
<defs>
<linearGradient id="paint0_linear_3654_908" x1="106.711" y1="260.636" x2="182.958" y2="603.014" gradientUnits="userSpaceOnUse">
<stop stop-color="white" stop-opacity="0.17"/>
<stop offset="1" stop-opacity="0"/>
</linearGradient>
<linearGradient id="paint1_linear_3654_908" x1="93.1921" y1="278.602" x2="101.415" y2="322.358" gradientUnits="userSpaceOnUse">
<stop stop-color="white" stop-opacity="0.56"/>
<stop offset="1" stop-color="#C4C4C4" stop-opacity="0"/>
</linearGradient>
<linearGradient id="paint2_linear_3654_908" x1="44.4382" y1="296.565" x2="63.0823" y2="332.079" gradientUnits="userSpaceOnUse">
<stop stop-color="#F9C746" stop-opacity="0.52"/>
<stop offset="1" stop-color="#C4C4C4" stop-opacity="0"/>
</linearGradient>
<linearGradient id="paint3_linear_3654_908" x1="91.4679" y1="296.565" x2="114.011" y2="317.013" gradientUnits="userSpaceOnUse">
<stop stop-color="#84EBE5" stop-opacity="0.62"/>
<stop offset="1" stop-color="#C4C4C4" stop-opacity="0"/>
</linearGradient>
<linearGradient id="paint4_linear_3654_908" x1="44.4382" y1="368.426" x2="63.0823" y2="403.939" gradientUnits="userSpaceOnUse">
<stop stop-color="white" stop-opacity="0.56"/>
<stop offset="1" stop-color="#C4C4C4" stop-opacity="0"/>
</linearGradient>
<linearGradient id="paint5_linear_3654_908" x1="91.4679" y1="368.426" x2="114.011" y2="388.874" gradientUnits="userSpaceOnUse">
<stop stop-color="#F47D9E"/>
<stop offset="1" stop-color="#C4C4C4" stop-opacity="0"/>
</linearGradient>
<linearGradient id="paint6_linear_3654_908" x1="58.6751" y1="332.496" x2="80.2089" y2="348.122" gradientUnits="userSpaceOnUse">
<stop stop-color="#F2C87D"/>
<stop offset="1" stop-color="#C4C4C4" stop-opacity="0"/>
</linearGradient>
<linearGradient id="paint7_linear_3654_908" x1="108.294" y1="332.496" x2="125.323" y2="370.082" gradientUnits="userSpaceOnUse">
<stop stop-color="white" stop-opacity="0.62"/>
<stop offset="1" stop-color="#C4C4C4" stop-opacity="0"/>
</linearGradient>
<linearGradient id="paint8_linear_3654_908" x1="24.16" y1="330.7" x2="63.7648" y2="336.743" gradientUnits="userSpaceOnUse">
<stop stop-color="#F37D9D"/>
<stop offset="1" stop-color="#C4C4C4" stop-opacity="0"/>
</linearGradient>
<linearGradient id="paint9_linear_3654_908" x1="52.6358" y1="314.531" x2="68.3511" y2="353.494" gradientUnits="userSpaceOnUse">
<stop stop-color="white" stop-opacity="0.58"/>
<stop offset="1" stop-color="#C4C4C4" stop-opacity="0"/>
</linearGradient>
<linearGradient id="paint10_linear_3654_908" x1="112.607" y1="314.531" x2="134.499" y2="342.994" gradientUnits="userSpaceOnUse">
<stop stop-color="white" stop-opacity="0.45"/>
<stop offset="1" stop-color="#C4C4C4" stop-opacity="0"/>
</linearGradient>
<linearGradient id="paint11_linear_3654_908" x1="52.6358" y1="350.462" x2="68.3511" y2="389.425" gradientUnits="userSpaceOnUse">
<stop stop-color="#70D1E7"/>
<stop offset="1" stop-color="#C4C4C4" stop-opacity="0"/>
</linearGradient>
<linearGradient id="paint12_linear_3654_908" x1="348.03" y1="0" x2="463.323" y2="530.099" gradientUnits="userSpaceOnUse">
<stop stop-color="white" stop-opacity="0.16"/>
<stop offset="1" stop-color="#C4C4C4" stop-opacity="0"/>
</linearGradient>
<linearGradient id="paint13_linear_3654_908" x1="347.762" y1="1.34349e-05" x2="694.94" y2="270.679" gradientUnits="userSpaceOnUse">
<stop stop-color="white" stop-opacity="0.17"/>
<stop offset="1" stop-opacity="0"/>
</linearGradient>
<linearGradient id="paint14_linear_3654_908" x1="343.877" y1="15.2705" x2="407.802" y2="228.253" gradientUnits="userSpaceOnUse">
<stop stop-color="white" stop-opacity="0.15"/>
<stop offset="1" stop-color="#C4C4C4" stop-opacity="0"/>
</linearGradient>
<linearGradient id="paint15_linear_3654_908" x1="480.471" y1="71.1738" x2="556.718" y2="413.552" gradientUnits="userSpaceOnUse">
<stop stop-color="white" stop-opacity="0.17"/>
<stop offset="1" stop-opacity="0"/>
</linearGradient>
<linearGradient id="paint16_linear_3654_908" x1="466.952" y1="89.1396" x2="475.175" y2="132.896" gradientUnits="userSpaceOnUse">
<stop stop-color="white" stop-opacity="0.56"/>
<stop offset="1" stop-color="#C4C4C4" stop-opacity="0"/>
</linearGradient>
<linearGradient id="paint17_linear_3654_908" x1="418.198" y1="107.103" x2="436.842" y2="142.616" gradientUnits="userSpaceOnUse">
<stop stop-color="#F9C746" stop-opacity="0.52"/>
<stop offset="1" stop-color="#C4C4C4" stop-opacity="0"/>
</linearGradient>
<linearGradient id="paint18_linear_3654_908" x1="465.222" y1="107.103" x2="487.765" y2="127.55" gradientUnits="userSpaceOnUse">
<stop stop-color="#84EBE5" stop-opacity="0.62"/>
<stop offset="1" stop-color="#C4C4C4" stop-opacity="0"/>
</linearGradient>
<linearGradient id="paint19_linear_3654_908" x1="418.198" y1="178.964" x2="436.842" y2="214.477" gradientUnits="userSpaceOnUse">
<stop stop-color="white" stop-opacity="0.56"/>
<stop offset="1" stop-color="#C4C4C4" stop-opacity="0"/>
</linearGradient>
<linearGradient id="paint20_linear_3654_908" x1="465.222" y1="178.964" x2="487.765" y2="199.412" gradientUnits="userSpaceOnUse">
<stop stop-color="#F47D9E"/>
<stop offset="1" stop-color="#C4C4C4" stop-opacity="0"/>
</linearGradient>
<linearGradient id="paint21_linear_3654_908" x1="432.437" y1="143.034" x2="453.971" y2="158.66" gradientUnits="userSpaceOnUse">
<stop stop-color="#F2C87D"/>
<stop offset="1" stop-color="#C4C4C4" stop-opacity="0"/>
</linearGradient>
<linearGradient id="paint22_linear_3654_908" x1="482.054" y1="143.034" x2="499.084" y2="180.62" gradientUnits="userSpaceOnUse">
<stop stop-color="white" stop-opacity="0.62"/>
<stop offset="1" stop-color="#C4C4C4" stop-opacity="0"/>
</linearGradient>
<linearGradient id="paint23_linear_3654_908" x1="397.92" y1="141.238" x2="437.525" y2="147.281" gradientUnits="userSpaceOnUse">
<stop stop-color="#F37D9D"/>
<stop offset="1" stop-color="#C4C4C4" stop-opacity="0"/>
</linearGradient>
<linearGradient id="paint24_linear_3654_908" x1="426.396" y1="125.068" x2="442.111" y2="164.031" gradientUnits="userSpaceOnUse">
<stop stop-color="white" stop-opacity="0.58"/>
<stop offset="1" stop-color="#C4C4C4" stop-opacity="0"/>
</linearGradient>
<linearGradient id="paint25_linear_3654_908" x1="486.368" y1="125.068" x2="508.26" y2="153.531" gradientUnits="userSpaceOnUse">
<stop stop-color="white" stop-opacity="0.45"/>
<stop offset="1" stop-color="#C4C4C4" stop-opacity="0"/>
</linearGradient>
<linearGradient id="paint26_linear_3654_908" x1="426.396" y1="161" x2="442.111" y2="199.963" gradientUnits="userSpaceOnUse">
<stop stop-color="#70D1E7"/>
<stop offset="1" stop-color="#C4C4C4" stop-opacity="0"/>
</linearGradient>
<linearGradient id="paint27_linear_3654_908" x1="177.755" y1="16.7612" x2="240.531" y2="267.381" gradientUnits="userSpaceOnUse">
<stop stop-color="white" stop-opacity="0.31"/>
<stop offset="1" stop-color="white" stop-opacity="0"/>
</linearGradient>
<linearGradient id="paint28_linear_3654_908" x1="177.673" y1="-59.1445" x2="65.064" y2="337.044" gradientUnits="userSpaceOnUse">
<stop stop-color="white" stop-opacity="0.31"/>
<stop offset="1" stop-color="white" stop-opacity="0"/>
</linearGradient>
<linearGradient id="paint29_linear_3654_908" x1="147.284" y1="59.1059" x2="182.219" y2="154.444" gradientUnits="userSpaceOnUse">
<stop stop-color="white" stop-opacity="0.31"/>
<stop offset="1" stop-color="white" stop-opacity="0"/>
</linearGradient>
<linearGradient id="paint30_linear_3654_908" x1="242.273" y1="59.1059" x2="261.586" y2="163.679" gradientUnits="userSpaceOnUse">
<stop stop-color="white" stop-opacity="0.31"/>
<stop offset="1" stop-color="white" stop-opacity="0"/>
</linearGradient>
<linearGradient id="paint31_linear_3654_908" x1="222.743" y1="119.252" x2="259.899" y2="212.603" gradientUnits="userSpaceOnUse">
<stop stop-color="white" stop-opacity="0.31"/>
<stop offset="1" stop-color="white" stop-opacity="0"/>
</linearGradient>
<linearGradient id="paint32_linear_3654_908" x1="290.998" y1="119.252" x2="328.154" y2="212.603" gradientUnits="userSpaceOnUse">
<stop stop-color="white" stop-opacity="0.31"/>
<stop offset="1" stop-color="white" stop-opacity="0"/>
</linearGradient>
</defs>
</svg>
