<svg width="638" height="360" viewBox="0 0 638 360" fill="none" xmlns="http://www.w3.org/2000/svg">
<path d="M80 16.9727C80 7.59893 87.6225 0 97.0253 0H541.475C550.877 0 558.5 7.59894 558.5 16.9727V343.027C558.5 352.401 550.877 360 541.475 360H97.0253C87.6225 360 80 352.401 80 343.027V16.9727Z" fill="url(#paint0_linear_3617_862)"/>
<path fill-rule="evenodd" clip-rule="evenodd" d="M541.225 1.7866H96.7753C88.3622 1.7866 81.5421 8.58564 81.5421 16.9727V343.027C81.5421 351.414 88.3622 358.213 96.7753 358.213H541.225C549.638 358.213 556.458 351.414 556.458 343.027V16.9727C556.458 8.58565 549.638 1.7866 541.225 1.7866ZM96.7753 0C87.3725 0 79.75 7.59893 79.75 16.9727V343.027C79.75 352.401 87.3725 360 96.7753 360H541.225C550.627 360 558.25 352.401 558.25 343.027V16.9727C558.25 7.59894 550.627 0 541.225 0H96.7753Z" fill="url(#paint1_linear_3617_862)"/>
<path d="M364.699 280.946C364.699 277.244 367.71 274.243 371.425 274.243H390.761C394.475 274.243 397.486 277.244 397.486 280.946V300.217C397.486 303.919 394.475 306.92 390.761 306.92H371.425C367.71 306.92 364.699 303.919 364.699 300.217V280.946Z" fill="#51CB9C"/>
<path d="M376.263 296.866L370.583 290.568L376.263 284.298H378.974L373.27 290.568L378.974 296.866H376.263Z" fill="white"/>
<path d="M383.186 284.298H385.896L391.6 290.568L385.896 296.866H383.186L388.89 290.568L383.186 284.298Z" fill="white"/>
<path d="M258.066 103.18C258.066 99.4776 261.078 96.4766 264.792 96.4766H284.128C287.842 96.4766 290.853 99.4776 290.853 103.18V122.45C290.853 126.152 287.842 129.153 284.128 129.153H264.792C261.078 129.153 258.066 126.152 258.066 122.45V103.18Z" fill="#1ABCFE"/>
<path fill-rule="evenodd" clip-rule="evenodd" d="M277.349 108.803L274.687 104.742H266.7V122.337H282.673V108.803H277.349ZM280.572 110.897H276.212L273.549 106.837H268.802V120.243H280.572V110.897Z" fill="white"/>
<path d="M425.631 139.805C425.631 136.103 428.642 133.102 432.356 133.102H451.692C455.407 133.102 458.418 136.103 458.418 139.805V159.075C458.418 162.777 455.407 165.778 451.692 165.778H432.356C428.642 165.778 425.631 162.777 425.631 159.075V139.805Z" fill="#FFC04A"/>
<path d="M434.039 148.595C435.399 148.342 436.079 147.644 436.079 146.501C436.079 145.996 436.013 145.133 435.879 143.91C435.746 142.608 435.679 141.664 435.679 141.079C435.679 140.122 435.946 139.391 436.479 138.886C437.026 138.381 437.753 138.129 438.659 138.129H439.82V139.704H438.999C438.479 139.704 438.093 139.823 437.839 140.063C437.586 140.288 437.459 140.667 437.459 141.199C437.459 141.584 437.486 142.063 437.539 142.634C437.593 143.192 437.626 143.571 437.639 143.77C437.773 145.046 437.839 145.976 437.839 146.561C437.839 147.266 437.659 147.857 437.299 148.335C436.953 148.801 436.413 149.113 435.679 149.272V149.312C436.413 149.472 436.953 149.791 437.299 150.269C437.659 150.747 437.839 151.339 437.839 152.043C437.839 152.628 437.773 153.558 437.639 154.834C437.626 155.033 437.593 155.419 437.539 155.99C437.486 156.548 437.459 157.02 437.459 157.406C437.459 157.937 437.586 158.316 437.839 158.542C438.093 158.781 438.479 158.901 438.999 158.901H439.82V160.475H438.659C437.753 160.475 437.026 160.223 436.479 159.718C435.946 159.213 435.679 158.482 435.679 157.525C435.679 156.94 435.746 155.997 435.879 154.694C436.013 153.472 436.079 152.608 436.079 152.103C436.079 150.96 435.399 150.262 434.039 150.01V148.595Z" fill="#1C1E53"/>
<path d="M450.255 150.01C448.895 150.262 448.215 150.96 448.215 152.103C448.215 152.608 448.282 153.472 448.415 154.694C448.548 155.997 448.615 156.94 448.615 157.525C448.615 158.482 448.342 159.213 447.795 159.718C447.262 160.223 446.541 160.475 445.635 160.475H444.475V158.901H445.295C445.815 158.901 446.201 158.781 446.455 158.542C446.708 158.316 446.835 157.937 446.835 157.406C446.835 157.02 446.808 156.548 446.755 155.99C446.701 155.419 446.668 155.033 446.655 154.834C446.521 153.558 446.455 152.628 446.455 152.043C446.455 151.339 446.628 150.747 446.975 150.269C447.335 149.791 447.882 149.472 448.615 149.312V149.272C447.882 149.113 447.335 148.801 446.975 148.335C446.628 147.857 446.455 147.266 446.455 146.561C446.455 145.976 446.521 145.046 446.655 143.77C446.668 143.571 446.701 143.192 446.755 142.634C446.808 142.063 446.835 141.584 446.835 141.199C446.835 140.667 446.708 140.288 446.455 140.063C446.201 139.823 445.815 139.704 445.295 139.704H444.475V138.129H445.635C446.541 138.129 447.262 138.381 447.795 138.886C448.342 139.391 448.615 140.122 448.615 141.079C448.615 141.664 448.548 142.608 448.415 143.91C448.282 145.133 448.215 145.996 448.215 146.501C448.215 147.644 448.895 148.342 450.255 148.595V150.01Z" fill="#1C1E53"/>
<path d="M0 100.943C0 95.023 4.8142 90.2236 10.7528 90.2236H182.798C188.736 90.2236 193.551 95.023 193.551 100.943V211.712C193.551 217.633 188.736 222.432 182.798 222.432H10.7528C4.8142 222.432 0 217.633 0 211.712V100.943Z" fill="url(#paint2_linear_3617_862)"/>
<path fill-rule="evenodd" clip-rule="evenodd" d="M182.798 92.0102H10.7528C5.80397 92.0102 1.79213 96.0097 1.79213 100.943V211.712C1.79213 216.646 5.80397 220.645 10.7528 220.645H182.798C187.747 220.645 191.758 216.646 191.758 211.712V100.943C191.758 96.0097 187.747 92.0102 182.798 92.0102ZM10.7528 90.2236C4.8142 90.2236 0 95.023 0 100.943V211.712C0 217.633 4.8142 222.432 10.7528 222.432H182.798C188.736 222.432 193.551 217.633 193.551 211.712V100.943C193.551 95.023 188.736 90.2236 182.798 90.2236H10.7528Z" fill="url(#paint3_linear_3617_862)"/>
<path d="M21.5059 125.062C21.5059 122.102 23.913 119.702 26.8823 119.702H77.062C80.0313 119.702 82.4384 122.102 82.4384 125.062V182.233C82.4384 185.193 80.0313 187.593 77.062 187.593H26.8823C23.913 187.593 21.5059 185.193 21.5059 182.233V125.062Z" fill="white" fill-opacity="0.17"/>
<path d="M94.0859 124.615C94.0859 121.902 96.2924 119.702 99.0143 119.702H162.635C165.357 119.702 167.563 121.902 167.563 124.615V124.615C167.563 127.329 165.357 129.528 162.635 129.528H99.0143C96.2924 129.528 94.0859 127.329 94.0859 124.615V124.615Z" fill="white" fill-opacity="0.6"/>
<path d="M94.0859 143.375C94.0859 140.662 96.2924 138.462 99.0143 138.462H162.635C165.357 138.462 167.563 140.662 167.563 143.375V143.375C167.563 146.089 165.357 148.288 162.635 148.288H99.0143C96.2924 148.288 94.0859 146.089 94.0859 143.375V143.375Z" fill="white" fill-opacity="0.26"/>
<path d="M94.0859 174.639C94.0859 165.512 101.508 158.113 110.663 158.113H111.559C120.715 158.113 128.136 165.512 128.136 174.639V174.639C128.136 183.766 120.715 191.165 111.559 191.165H110.663C101.508 191.165 94.0859 183.766 94.0859 174.639V174.639Z" fill="#767799"/>
<path d="M90.5039 33.4992C90.5039 23.3854 98.7282 15.1865 108.873 15.1865H521.96C532.105 15.1865 540.33 23.3854 540.33 33.4992V33.4992C540.33 43.613 532.105 51.8118 521.96 51.8118H108.873C98.7281 51.8118 90.5039 43.613 90.5039 33.4992V33.4992Z" fill="url(#paint4_linear_3617_862)"/>
<path d="M465.955 199.206C465.955 193.286 470.769 188.486 476.708 188.486H627.247C633.186 188.486 638 193.286 638 199.206V309.975C638 315.895 633.186 320.695 627.247 320.695H476.708C470.769 320.695 465.955 315.895 465.955 309.975V199.206Z" fill="url(#paint5_linear_3617_862)"/>
<path fill-rule="evenodd" clip-rule="evenodd" d="M627.247 190.273H476.708C471.759 190.273 467.747 194.272 467.747 199.206V309.975C467.747 314.909 471.759 318.908 476.708 318.908H627.247C632.196 318.908 636.208 314.909 636.208 309.975V199.206C636.208 194.272 632.196 190.273 627.247 190.273ZM476.708 188.486C470.769 188.486 465.955 193.286 465.955 199.206V309.975C465.955 315.895 470.769 320.695 476.708 320.695H627.247C633.186 320.695 638 315.895 638 309.975V199.206C638 193.286 633.186 188.486 627.247 188.486H476.708Z" fill="url(#paint6_linear_3617_862)"/>
<path d="M481.885 209.925C481.885 207.951 483.489 206.352 485.469 206.352H618.485C620.465 206.352 622.069 207.951 622.069 209.925V209.925C622.069 211.898 620.465 213.498 618.485 213.498H485.469C483.489 213.498 481.885 211.898 481.885 209.925V209.925Z" fill="url(#paint7_linear_3617_862)"/>
<path d="M481.885 227.792C481.885 225.819 483.489 224.219 485.469 224.219H528.48C530.46 224.219 532.065 225.819 532.065 227.792V227.792C532.065 229.765 530.46 231.365 528.48 231.365H485.469C483.489 231.365 481.885 229.765 481.885 227.792V227.792Z" fill="url(#paint8_linear_3617_862)"/>
<path d="M538.437 227.792C538.437 225.819 540.041 224.219 542.021 224.219H558.747C560.727 224.219 562.332 225.819 562.332 227.792V227.792C562.332 229.765 560.727 231.365 558.747 231.365H542.021C540.041 231.365 538.437 229.765 538.437 227.792V227.792Z" fill="url(#paint9_linear_3617_862)"/>
<path d="M481.885 299.256C481.885 297.282 483.489 295.683 485.469 295.683H528.48C530.46 295.683 532.065 297.282 532.065 299.256V299.256C532.065 301.229 530.46 302.829 528.48 302.829H485.469C483.489 302.829 481.885 301.229 481.885 299.256V299.256Z" fill="url(#paint10_linear_3617_862)"/>
<path d="M538.437 299.256C538.437 297.282 540.041 295.683 542.021 295.683H558.747C560.727 295.683 562.332 297.282 562.332 299.256V299.256C562.332 301.229 560.727 302.829 558.747 302.829H542.021C540.041 302.829 538.437 301.229 538.437 299.256V299.256Z" fill="url(#paint11_linear_3617_862)"/>
<path d="M510.56 263.523C510.56 261.55 512.164 259.95 514.144 259.95H526.091C528.071 259.95 529.676 261.55 529.676 263.523V263.523C529.676 265.497 528.071 267.097 526.091 267.097H514.144C512.164 267.097 510.56 265.497 510.56 263.523V263.523Z" fill="url(#paint12_linear_3617_862)"/>
<path d="M536.845 263.523C536.845 261.55 538.449 259.95 540.429 259.95H591.405C593.385 259.95 594.99 261.55 594.99 263.523V263.523C594.99 265.497 593.385 267.097 591.405 267.097H540.429C538.449 267.097 536.845 265.497 536.845 263.523V263.523Z" fill="url(#paint13_linear_3617_862)"/>
<path d="M481.885 263.523C481.885 261.55 483.489 259.95 485.469 259.95H502.196C504.175 259.95 505.78 261.55 505.78 263.523V263.523C505.78 265.497 504.175 267.097 502.196 267.097H485.469C483.489 267.097 481.885 265.497 481.885 263.523V263.523Z" fill="url(#paint14_linear_3617_862)"/>
<path d="M481.885 245.657C481.885 243.684 483.489 242.084 485.469 242.084H543.614C545.593 242.084 547.198 243.684 547.198 245.657V245.657C547.198 247.631 545.593 249.23 543.614 249.23H485.469C483.489 249.23 481.885 247.631 481.885 245.657V245.657Z" fill="url(#paint15_linear_3617_862)"/>
<path d="M552.774 245.657C552.774 243.684 554.379 242.084 556.359 242.084H583.44C585.419 242.084 587.024 243.684 587.024 245.657V245.657C587.024 247.631 585.419 249.23 583.44 249.23H556.359C554.379 249.23 552.774 247.631 552.774 245.657V245.657Z" fill="url(#paint16_linear_3617_862)"/>
<path d="M481.885 281.39C481.885 279.416 483.489 277.816 485.469 277.816H543.614C545.593 277.816 547.198 279.416 547.198 281.39V281.39C547.198 283.363 545.593 284.963 543.614 284.963H485.469C483.489 284.963 481.885 283.363 481.885 281.39V281.39Z" fill="url(#paint17_linear_3617_862)"/>
<path d="M123.343 33.7006C123.343 37.0835 120.591 39.8259 117.197 39.8259C113.802 39.8259 111.051 37.0835 111.051 33.7006C111.051 30.3176 113.802 27.5752 117.197 27.5752C120.591 27.5752 123.343 30.3176 123.343 33.7006Z" fill="#FED280"/>
<path d="M144.855 33.7006C144.855 37.0835 142.103 39.8259 138.709 39.8259C135.314 39.8259 132.562 37.0835 132.562 33.7006C132.562 30.3176 135.314 27.5752 138.709 27.5752C142.103 27.5752 144.855 30.3176 144.855 33.7006Z" fill="#8CFEE3" fill-opacity="0.9"/>
<path d="M166.368 33.7006C166.368 37.0835 163.617 39.8259 160.222 39.8259C156.828 39.8259 154.076 37.0835 154.076 33.7006C154.076 30.3176 156.828 27.5752 160.222 27.5752C163.617 27.5752 166.368 30.3176 166.368 33.7006Z" fill="#FF8DA9" fill-opacity="0.9"/>
<path d="M48.1911 152.494C46.5011 150.297 43.1424 150.443 41.6496 152.779L29.8131 171.303C28.1117 173.965 30.024 177.456 33.1837 177.456H70.8961C74.1648 177.456 76.0536 173.749 74.1317 171.105L67.4551 161.919C65.9739 159.882 63.0005 159.704 61.2871 161.551L61.1531 161.695C59.4697 163.51 56.5588 163.375 55.0499 161.413L48.1911 152.494Z" fill="white"/>
<path d="M71.479 139.595C71.479 142.801 68.8713 145.401 65.6545 145.401C62.4378 145.401 59.8301 142.801 59.8301 139.595C59.8301 136.388 62.4378 133.788 65.6545 133.788C68.8713 133.788 71.479 136.388 71.479 139.595Z" fill="#C4C5DC"/>
<path fill-rule="evenodd" clip-rule="evenodd" d="M192.43 152.754C192.43 152.138 192.931 151.638 193.55 151.638H327.08V177.935C327.08 178.551 326.578 179.051 325.96 179.051C325.341 179.051 324.84 178.551 324.84 177.935V153.871H193.55C192.931 153.871 192.43 153.371 192.43 152.754Z" fill="url(#paint18_linear_3617_862)"/>
<path fill-rule="evenodd" clip-rule="evenodd" d="M467.075 254.59C467.075 255.207 466.574 255.707 465.955 255.707L325.256 255.707L325.256 230.407C325.256 229.79 325.758 229.29 326.376 229.29C326.995 229.29 327.497 229.79 327.497 230.407L327.497 253.474L465.955 253.474C466.574 253.474 467.075 253.974 467.075 254.59Z" fill="url(#paint19_linear_3617_862)"/>
<g filter="url(#filter0_d_3617_862)">
<path fill-rule="evenodd" clip-rule="evenodd" d="M324.056 198.938C324.05 199.154 324.089 199.257 324.287 199.258H329.06C329.924 199.321 330.697 199.536 331.351 199.955C331.805 200.246 332.137 200.591 332.387 200.974C332.83 201.654 333.081 202.634 333.217 203.425C333.275 203.767 333.302 204.086 333.24 204.235C333.21 204.305 333.166 204.352 333.107 204.374C332.779 204.498 332.432 204.072 332.247 203.867C331.367 202.896 330.088 202.494 328.579 202.418H324.216C324.06 202.444 324.004 202.553 324.02 202.721V203.881C324.011 204.266 323.805 204.397 323.397 204.267L319.64 201.484L319.27 201.21L319.176 201.14C318.874 200.884 318.998 200.651 319.269 200.449L319.556 200.236L323.156 197.561C323.595 197.234 324.056 197.147 324.056 197.851V198.938ZM328.236 210.774C328.242 210.559 328.203 210.455 328.005 210.455H323.232C322.368 210.391 321.595 210.176 320.941 209.757C320.484 209.465 320.151 209.117 319.901 208.731C319.448 208.033 319.153 206.898 319.044 206.082C319.01 205.822 319.002 205.596 319.052 205.478C319.082 205.408 319.126 205.361 319.185 205.338C319.513 205.214 319.86 205.641 320.045 205.845C320.925 206.817 322.205 207.219 323.713 207.294H328.076C328.232 207.269 328.288 207.16 328.272 206.991V205.831C328.281 205.446 328.487 205.315 328.895 205.445L332.652 208.228L333.022 208.502L333.116 208.572C333.418 208.828 333.294 209.062 333.023 209.263L332.736 209.476L329.137 212.152C328.697 212.478 328.237 212.566 328.237 211.862L328.236 210.774Z" fill="#88F1DB"/>
</g>
<path d="M345 204.367C345 214.823 336.496 223.305 326 223.305C315.504 223.305 307 214.823 307 204.367C307 193.911 315.504 185.429 326 185.429C336.496 185.429 345 193.911 345 204.367Z" stroke="white" stroke-width="2"/>
<path d="M248.211 152.754C248.211 157.688 244.2 161.687 239.251 161.687C234.302 161.687 230.29 157.688 230.29 152.754C230.29 147.821 234.302 143.821 239.251 143.821C244.2 143.821 248.211 147.821 248.211 152.754Z" fill="#383A68"/>
<path fill-rule="evenodd" clip-rule="evenodd" d="M239.251 159.901C243.21 159.901 246.419 156.701 246.419 152.754C246.419 148.807 243.21 145.608 239.251 145.608C235.292 145.608 232.082 148.807 232.082 152.754C232.082 156.701 235.292 159.901 239.251 159.901ZM239.251 161.687C244.2 161.687 248.211 157.688 248.211 152.754C248.211 147.821 244.2 143.821 239.251 143.821C234.302 143.821 230.29 147.821 230.29 152.754C230.29 157.688 234.302 161.687 239.251 161.687Z" fill="#63648A"/>
<path d="M443.552 254.591C443.552 259.525 439.54 263.524 434.592 263.524C429.643 263.524 425.631 259.525 425.631 254.591C425.631 249.658 429.643 245.658 434.592 245.658C439.54 245.658 443.552 249.658 443.552 254.591Z" fill="#383A68"/>
<path fill-rule="evenodd" clip-rule="evenodd" d="M434.592 261.738C438.551 261.738 441.76 258.538 441.76 254.591C441.76 250.644 438.551 247.445 434.592 247.445C430.632 247.445 427.423 250.644 427.423 254.591C427.423 258.538 430.632 261.738 434.592 261.738ZM434.592 263.524C439.54 263.524 443.552 259.525 443.552 254.591C443.552 249.658 439.54 245.658 434.592 245.658C429.643 245.658 425.631 249.658 425.631 254.591C425.631 259.525 429.643 263.524 434.592 263.524Z" fill="#63648A"/>
<path d="M134.41 164.816C134.41 161.114 137.421 158.113 141.136 158.113H160.472C164.186 158.113 167.197 161.114 167.197 164.816V184.087C167.197 187.789 164.186 190.79 160.472 190.79H141.136C137.421 190.79 134.41 187.789 134.41 184.087V164.816Z" fill="#767799"/>
<path fill-rule="evenodd" clip-rule="evenodd" d="M154.065 183.824H148.007V181.311H154.065V183.824Z" fill="white"/>
<path fill-rule="evenodd" clip-rule="evenodd" d="M142.396 166.912H159.21V170.956H156.688V169.426H144.919V170.956H142.396V166.912Z" fill="white"/>
<path fill-rule="evenodd" clip-rule="evenodd" d="M149.699 182.708L149.854 168.31L152.376 168.337L152.22 182.735L149.699 182.708Z" fill="white"/>
<defs>
<filter id="filter0_d_3617_862" x="305" y="187.315" width="42.292" height="43.0811" filterUnits="userSpaceOnUse" color-interpolation-filters="sRGB">
<feFlood flood-opacity="0" result="BackgroundImageFix"/>
<feColorMatrix in="SourceAlpha" type="matrix" values="0 0 0 0 0 0 0 0 0 0 0 0 0 0 0 0 0 0 127 0" result="hardAlpha"/>
<feOffset dy="4"/>
<feGaussianBlur stdDeviation="7"/>
<feComposite in2="hardAlpha" operator="out"/>
<feColorMatrix type="matrix" values="0 0 0 0 0.533333 0 0 0 0 0.945098 0 0 0 0 0.858824 0 0 0 1 0"/>
<feBlend mode="normal" in2="BackgroundImageFix" result="effect1_dropShadow_3617_862"/>
<feBlend mode="normal" in="SourceGraphic" in2="effect1_dropShadow_3617_862" result="shape"/>
</filter>
<linearGradient id="paint0_linear_3617_862" x1="319.25" y1="0" x2="441.889" y2="523.374" gradientUnits="userSpaceOnUse">
<stop stop-color="white" stop-opacity="0.16"/>
<stop offset="1" stop-color="#C4C4C4" stop-opacity="0"/>
</linearGradient>
<linearGradient id="paint1_linear_3617_862" x1="319" y1="1.33608e-05" x2="657.17" y2="244.719" gradientUnits="userSpaceOnUse">
<stop stop-color="white" stop-opacity="0.17"/>
<stop offset="1" stop-opacity="0"/>
</linearGradient>
<linearGradient id="paint2_linear_3617_862" x1="41.8266" y1="125.724" x2="278.014" y2="434.19" gradientUnits="userSpaceOnUse">
<stop stop-color="#40416E"/>
<stop offset="1" stop-color="#5A5B8B"/>
</linearGradient>
<linearGradient id="paint3_linear_3617_862" x1="96.7753" y1="90.2236" x2="178.691" y2="426.625" gradientUnits="userSpaceOnUse">
<stop stop-color="white" stop-opacity="0.17"/>
<stop offset="1" stop-opacity="0"/>
</linearGradient>
<linearGradient id="paint4_linear_3617_862" x1="315.417" y1="15.1865" x2="383.01" y2="224.217" gradientUnits="userSpaceOnUse">
<stop stop-color="white" stop-opacity="0.15"/>
<stop offset="1" stop-color="#C4C4C4" stop-opacity="0"/>
</linearGradient>
<linearGradient id="paint5_linear_3617_862" x1="797.652" y1="534.105" x2="327.604" y2="106.046" gradientUnits="userSpaceOnUse">
<stop stop-color="#40416E"/>
<stop offset="1" stop-color="#5A5B8B"/>
</linearGradient>
<linearGradient id="paint6_linear_3617_862" x1="551.978" y1="188.486" x2="642.783" y2="519.959" gradientUnits="userSpaceOnUse">
<stop stop-color="white" stop-opacity="0.17"/>
<stop offset="1" stop-opacity="0"/>
</linearGradient>
<linearGradient id="paint7_linear_3617_862" x1="551.977" y1="206.352" x2="560.739" y2="249.629" gradientUnits="userSpaceOnUse">
<stop stop-color="white" stop-opacity="0.56"/>
<stop offset="1" stop-color="#C4C4C4" stop-opacity="0"/>
</linearGradient>
<linearGradient id="paint8_linear_3617_862" x1="506.975" y1="224.219" x2="526.28" y2="258.351" gradientUnits="userSpaceOnUse">
<stop stop-color="#F9C746" stop-opacity="0.52"/>
<stop offset="1" stop-color="#C4C4C4" stop-opacity="0"/>
</linearGradient>
<linearGradient id="paint9_linear_3617_862" x1="550.384" y1="224.219" x2="572.58" y2="242.906" gradientUnits="userSpaceOnUse">
<stop stop-color="#84EBE5" stop-opacity="0.62"/>
<stop offset="1" stop-color="#C4C4C4" stop-opacity="0"/>
</linearGradient>
<linearGradient id="paint10_linear_3617_862" x1="506.975" y1="295.683" x2="526.28" y2="329.815" gradientUnits="userSpaceOnUse">
<stop stop-color="white" stop-opacity="0.56"/>
<stop offset="1" stop-color="#C4C4C4" stop-opacity="0"/>
</linearGradient>
<linearGradient id="paint11_linear_3617_862" x1="550.384" y1="295.683" x2="572.58" y2="314.37" gradientUnits="userSpaceOnUse">
<stop stop-color="#F47D9E"/>
<stop offset="1" stop-color="#C4C4C4" stop-opacity="0"/>
</linearGradient>
<linearGradient id="paint12_linear_3617_862" x1="520.118" y1="259.95" x2="540.992" y2="274.009" gradientUnits="userSpaceOnUse">
<stop stop-color="#F2C87D"/>
<stop offset="1" stop-color="#C4C4C4" stop-opacity="0"/>
</linearGradient>
<linearGradient id="paint13_linear_3617_862" x1="565.917" y1="259.95" x2="583.676" y2="296.333" gradientUnits="userSpaceOnUse">
<stop stop-color="white" stop-opacity="0.62"/>
<stop offset="1" stop-color="#C4C4C4" stop-opacity="0"/>
</linearGradient>
<linearGradient id="paint14_linear_3617_862" x1="488.257" y1="258.164" x2="524.93" y2="263.358" gradientUnits="userSpaceOnUse">
<stop stop-color="#F37D9D"/>
<stop offset="1" stop-color="#C4C4C4" stop-opacity="0"/>
</linearGradient>
<linearGradient id="paint15_linear_3617_862" x1="514.541" y1="242.084" x2="531.009" y2="279.979" gradientUnits="userSpaceOnUse">
<stop stop-color="white" stop-opacity="0.58"/>
<stop offset="1" stop-color="#C4C4C4" stop-opacity="0"/>
</linearGradient>
<linearGradient id="paint16_linear_3617_862" x1="569.899" y1="242.084" x2="592.033" y2="268.793" gradientUnits="userSpaceOnUse">
<stop stop-color="white" stop-opacity="0.45"/>
<stop offset="1" stop-color="#C4C4C4" stop-opacity="0"/>
</linearGradient>
<linearGradient id="paint17_linear_3617_862" x1="514.541" y1="277.816" x2="531.009" y2="315.712" gradientUnits="userSpaceOnUse">
<stop stop-color="#70D1E7"/>
<stop offset="1" stop-color="#C4C4C4" stop-opacity="0"/>
</linearGradient>
<linearGradient id="paint18_linear_3617_862" x1="314.831" y1="146.587" x2="135.21" y2="200.966" gradientUnits="userSpaceOnUse">
<stop stop-color="#767799"/>
<stop offset="1" stop-color="#767799" stop-opacity="0"/>
</linearGradient>
<linearGradient id="paint19_linear_3617_862" x1="338.205" y1="260.758" x2="525.683" y2="200.973" gradientUnits="userSpaceOnUse">
<stop stop-color="#767799"/>
<stop offset="1" stop-color="#767799" stop-opacity="0"/>
</linearGradient>
</defs>
</svg>
