<svg width="32" height="32" viewBox="0 0 32 32" fill="none" xmlns="http://www.w3.org/2000/svg">
<g clip-path="url(#clip0_3650_693)">
<path d="M16 12.7337C19.003 12.7337 21.4374 10.137 21.4374 6.93374C21.4374 3.73051 19.003 1.13379 16 1.13379C12.9969 1.13379 10.5625 3.73051 10.5625 6.93374C10.5625 10.137 12.9969 12.7337 16 12.7337Z" fill="#2405F2"/>
<path d="M27 12.7337C28.8984 12.7337 30.4374 11.0921 30.4374 9.06703C30.4374 7.042 28.8984 5.40039 27 5.40039C25.1015 5.40039 23.5625 7.042 23.5625 9.06703C23.5625 11.0921 25.1015 12.7337 27 12.7337Z" fill="#2405F2"/>
<path d="M4.99997 12.7337C6.89843 12.7337 8.43744 11.0921 8.43744 9.06703C8.43744 7.042 6.89843 5.40039 4.99997 5.40039C3.10151 5.40039 1.5625 7.042 1.5625 9.06703C1.5625 11.0921 3.10151 12.7337 4.99997 12.7337Z" fill="#2405F2"/>
<path d="M8.3868 16.026C7.03369 14.8435 5.80826 15 4.24371 15C1.90373 15 0 17.0187 0 19.4993V26.7799C0 27.8572 0.824368 28.7332 1.83811 28.7332C6.21469 28.7332 5.68745 28.8177 5.68745 28.5319C5.68745 23.3729 5.11458 19.5895 8.3868 16.026V16.026Z" fill="#2405F2"/>
<path d="M17.4882 15.0269C14.7555 14.7838 12.3802 15.0297 10.3314 16.8336C6.90288 19.7629 7.56268 23.707 7.56268 28.5321C7.56268 29.8087 8.53642 30.8668 9.75141 30.8668C22.9439 30.8668 23.469 31.3207 24.2513 29.4728C24.5078 28.8478 24.4375 29.0464 24.4375 23.0682C24.4375 18.3198 20.583 15.0269 17.4882 15.0269V15.0269Z" fill="#2405F2"/>
<path d="M27.7564 15.0008C26.1833 15.0008 24.9646 14.8459 23.6133 16.0268C26.8611 19.5639 26.3126 23.0891 26.3126 28.5327C26.3126 28.8203 25.8749 28.734 30.0963 28.734C31.1463 28.734 32.0001 27.8267 32.0001 26.7114V19.5001C32.0001 17.0195 30.0963 15.0008 27.7564 15.0008Z" fill="#2405F2"/>
</g>
<defs>
<clipPath id="clip0_3650_693">
<rect width="32" height="32" fill="white"/>
</clipPath>
</defs>
</svg>
